<mxfile host="app.diagrams.net" modified="2024-04-12T13:37:32.863Z" agent="Mozilla/5.0 (Macintosh; Intel Mac OS X 10_15_7) AppleWebKit/537.36 (KHTML, like Gecko) Chrome/123.0.0.0 Safari/537.36" version="24.2.3" etag="g8QmESD9IEujxH53IHWX" type="github">
  <diagram name="Page-1" id="G7oa0kc-5oMEF9l1igqG">
    <mxGraphModel>
      <root>
        <mxCell id="0" />
        <mxCell id="1" parent="0" />
      </root>
    </mxGraphModel>
  </diagram>
</mxfile>
